<svg t="1723601634269" class="icon" viewBox="0 0 1024 1024" version="1.1" xmlns="http://www.w3.org/2000/svg" p-id="1523" width="16" height="16"><path d="M508.928 522.24c-83.968 0-151.552-67.584-151.552-151.552s67.584-151.552 151.552-151.552S660.48 286.72 660.48 370.688 592.896 522.24 508.928 522.24z m0-241.664c-50.176 0-90.112 40.96-90.112 90.112s40.96 90.112 90.112 90.112c50.176 0 90.112-40.96 90.112-90.112s-39.936-90.112-90.112-90.112z" p-id="1524" fill="#1296db"></path><path d="M512 992.256c-184.32 0-371.712-49.152-371.712-143.36 0-57.344 70.656-103.424 191.488-126.976-82.944-97.28-166.912-224.256-166.912-346.112 0-189.44 154.624-344.064 344.064-344.064s344.064 154.624 344.064 344.064c0 137.216-106.496 281.6-196.608 378.88-1.024 1.024-20.48 21.504-36.864 38.912-12.288 13.312-24.576 25.6-25.6 26.624-11.264 12.288-30.72 13.312-43.008 1.024-12.288-11.264-13.312-30.72-2.048-43.008 1.024-1.024 12.288-13.312 25.6-26.624 16.384-17.408 34.816-35.84 35.84-37.888 81.92-89.088 180.224-220.16 180.224-336.896 0-155.648-126.976-282.624-282.624-282.624S226.304 220.16 226.304 375.808c0 119.808 102.4 254.976 188.416 346.112 8.192 8.192 10.24 20.48 6.144 31.744s-13.312 18.432-25.6 20.48c-136.192 16.384-194.56 57.344-194.56 74.752 0 24.576 105.472 81.92 310.272 81.92s310.272-57.344 310.272-81.92c0-10.24-22.528-32.768-83.968-52.224a31.09888 31.09888 0 0 1 18.432-59.392c105.472 32.768 128 78.848 128 110.592 0 95.232-187.392 144.384-371.712 144.384z" p-id="1525" fill="#1296db"></path></svg>