<svg t="1724230314109" class="icon" viewBox="0 0 1024 1024" version="1.1" xmlns="http://www.w3.org/2000/svg" p-id="12261" width="16" height="16"><path d="M512 128v64H256A64.810667 64.810667 0 0 0 192 256v512A64.810667 64.810667 0 0 0 256 832h512a64.810667 64.810667 0 0 0 64-64v-256H896v256c-0.64 36.010667-13.141333 66.176-37.504 90.496-24.32 24.32-54.485333 36.821333-90.496 37.504H256c-36.010667-0.64-66.176-13.141333-90.496-37.504-24.32-24.32-36.821333-54.485333-37.504-90.496V256c0.64-36.010667 13.141333-66.176 37.504-90.496C189.824 141.184 220.032 128.682667 256 128h256z m256 256c36.010667-0.64 66.176-13.184 90.496-37.504 24.32-24.32 36.821333-54.528 37.504-90.496-0.64-36.010667-13.141333-66.176-37.504-90.496-24.32-24.32-54.485333-36.821333-90.496-37.504-36.010667 0.64-66.176 13.141333-90.496 37.504-24.32 24.32-36.821333 54.528-37.504 90.496 0.64 36.010667 13.184 66.176 37.504 90.496 24.32 24.32 54.528 36.821333 90.496 37.504z m0 64c-54.698667-1.322667-100.010667-20.010667-136.021333-56.021333C596.053333 356.053333 577.408 310.698667 576 256c1.322667-54.698667 20.010667-100.010667 56.021333-136.021333 35.968-35.968 81.28-54.613333 135.978667-55.978667 54.698667 1.365333 100.010667 20.010667 136.021333 56.021333 35.968 35.968 54.613333 81.28 55.978667 135.978667-1.365333 54.698667-20.010667 100.010667-56.021333 136.021333-35.968 35.968-81.28 54.613333-135.978667 55.978667z" fill="#1296db" fill-opacity=".96" p-id="12262"></path></svg>