<svg t="1724230177506" class="icon" viewBox="0 0 1204 1024" version="1.1" xmlns="http://www.w3.org/2000/svg" p-id="8164" width="16" height="16"><path d="M79.567061 269.148036C34.93003 271.35779-0.426034 307.155805 0.015917 350.025032v350.025033c-0.883902 43.753129 34.914113 79.993095 80.435045 80.876996h170.151058l384.497194 229.814415c9.280967 7.955114 21.213638 12.816573 34.030212 12.816573 30.494605-0.883902 54.359948-24.749245 53.917997-53.917997V53.917997c0.441951-29.168753-23.423392-53.476047-53.917997-53.917997-12.374622 0.441951-24.749245 4.861459-34.030212 12.816573L246.624463 268.706085H79.567061zM889.662874 222.743202c37.123867 37.123867 64.966767 79.109193 83.528701 125.955978 18.561934 46.846785 27.8429 94.577471 27.842901 143.192059s-9.722918 96.345274-28.284852 143.192058a369.161502 369.161502 0 0 1-83.5287 125.955978l-41.543375-41.543375c-13.700475-13.700475-26.517048-26.958999-38.44972-39.333621 26.075097-26.075097 45.520932-55.24385 58.779456-88.39016 13.258524-32.704359 19.887786-66.29262 19.887786-100.322831s-6.629262-67.618472-19.887786-100.322831c-13.258524-32.704359-32.704359-62.315063-58.779456-87.948209l80.435045-80.435046z" p-id="8165" fill="#1296db"></path><path d="M1033.296884 79.551144c38.007769 38.007769 69.828226 79.551144 95.019422 124.630125 25.191196 45.078981 44.19508 91.925766 57.011653 140.098403 12.816573 48.614588 19.003884 97.671126 18.561933 148.053517 0 50.382391-6.629262 99.43893-19.445835 148.053518a580.016228 580.016228 0 0 1-152.031075 264.286577l-44.63703-44.63703c-4.861459-4.861459-9.722918-9.722918-13.700475-14.142426s-8.839016-9.722918-14.584376-15.026327a479.295641 479.295641 0 0 0 124.630125-217.439793c10.164868-39.775572 15.468278-80.435045 15.468278-121.536469 0-41.101424-5.30341-81.760898-15.910229-121.094519-10.606819-39.775572-26.075097-77.783341-46.846785-114.907208-20.771688-37.123867-46.846785-70.712128-77.78334-102.090634l15.026327-15.026327c7.513164-7.513164 15.468278-15.468278 23.423392-23.865343 7.955114-8.397065 15.026327-15.468278 21.655589-22.539491l12.816573-12.816573z" p-id="8166" fill="#1296db"></path></svg>