<svg t="1724230342115" class="icon" viewBox="0 0 1024 1024" version="1.1" xmlns="http://www.w3.org/2000/svg" p-id="13419" width="16" height="16"><path d="M668.8 902.4c-22.4 0-41.6-9.6-60.8-25.6-25.6-25.6-60.8-41.6-96-41.6s-70.4 16-96 41.6c-25.6 25.6-60.8 32-92.8 19.2-16-9.6-32-16-48-28.8-28.8-19.2-41.6-54.4-28.8-89.6 9.6-35.2 6.4-73.6-12.8-105.6-19.2-32-48-54.4-83.2-64-35.2-9.6-60.8-35.2-60.8-70.4v-28.8-28.8c3.2-35.2 28.8-60.8 60.8-70.4 35.2-9.6 67.2-32 83.2-64 19.2-25.6 22.4-64 12.8-99.2-9.6-35.2 0-70.4 28.8-89.6l48-28.8c28.8-16 67.2-6.4 92.8 19.2 25.6 25.6 60.8 41.6 96 41.6s70.4-16 96-41.6c25.6-25.6 60.8-32 92.8-19.2 16 9.6 32 16 48 28.8 28.8 19.2 41.6 54.4 28.8 89.6-9.6 35.2-6.4 73.6 12.8 105.6 19.2 32 48 54.4 83.2 64 35.2 9.6 60.8 35.2 60.8 70.4V544c-3.2 35.2-28.8 60.8-60.8 70.4-35.2 9.6-67.2 32-83.2 64-19.2 32-22.4 67.2-12.8 102.4 9.6 35.2-3.2 70.4-28.8 89.6l-48 28.8c-9.6 0-22.4 3.2-32 3.2zM512 803.2c44.8 0 86.4 19.2 118.4 51.2 16 16 38.4 19.2 54.4 12.8 16-6.4 28.8-16 44.8-25.6 16-9.6 22.4-32 16-54.4-12.8-44.8-6.4-89.6 16-128 22.4-38.4 60.8-67.2 105.6-76.8 22.4-6.4 35.2-22.4 38.4-41.6v-25.6-25.6c0-19.2-16-35.2-38.4-41.6-44.8-9.6-80-38.4-105.6-76.8-22.4-38.4-28.8-86.4-16-128 6.4-22.4 0-41.6-16-54.4-12.8-9.6-28.8-19.2-44.8-25.6-19.2-9.6-38.4-3.2-54.4 12.8-32 32-73.6 51.2-118.4 51.2-44.8 0-86.4-19.2-118.4-51.2-16-16-38.4-19.2-54.4-12.8-16 6.4-28.8 16-44.8 25.6-16 9.6-22.4 32-16 54.4 12.8 44.8 6.4 89.6-16 128-22.4 38.4-60.8 67.2-105.6 76.8-22.4 6.4-35.2 22.4-38.4 41.6v51.2c0 19.2 16 35.2 38.4 41.6 44.8 9.6 80 38.4 105.6 76.8 22.4 38.4 28.8 86.4 16 128-6.4 22.4 0 41.6 16 54.4 12.8 9.6 28.8 19.2 44.8 25.6 19.2 9.6 38.4 3.2 54.4-12.8 32-35.2 73.6-51.2 118.4-51.2z" p-id="13420" fill="#1296db"></path><path d="M512 656c-80 0-144-64-144-144s64-144 144-144 144 64 144 144-64 144-144 144z m0-256c-60.8 0-112 51.2-112 112s51.2 112 112 112 112-51.2 112-112-51.2-112-112-112z" p-id="13421" fill="#1296db"></path></svg>